<svg width="82" height="82" viewBox="0 0 82 82" fill="none" xmlns="http://www.w3.org/2000/svg">
<path d="M66.3945 41.7552H63.9163C63.8761 41.758 63.8383 41.7752 63.8098 41.8036C63.7813 41.8321 63.7641 41.8699 63.7614 41.9101V49.773C63.2202 49.9279 62.6771 50.0053 62.0585 50.0053C60.4322 50.0053 60.0449 49.5024 60.0449 47.333V41.9101C60.0422 41.8699 60.025 41.8321 59.9965 41.8036C59.968 41.7752 59.9302 41.758 59.8901 41.7552H57.4137C57.3735 41.758 57.3357 41.7752 57.3072 41.8036C57.2787 41.8321 57.2615 41.8699 57.2588 41.9101V47.6045C57.2588 51.167 58.4587 52.5236 61.5164 52.5236C63.2584 52.5236 65.2328 52.059 66.3945 51.6326C66.4327 51.5934 66.471 51.5551 66.471 51.5159V41.911C66.5485 41.8336 66.471 41.7561 66.3945 41.7561V41.7552ZM13.9026 41.7944H11.3861C11.3087 41.7944 11.2704 41.8327 11.2704 41.9101C10.8832 43.459 10.0705 46.093 8.98627 48.8437L6.47069 41.8718C6.43151 41.8327 6.39325 41.7944 6.35407 41.7944H3.79931C3.76014 41.7944 3.72187 41.8327 3.68269 41.8718C3.64443 41.9101 3.64443 41.9493 3.68269 41.9875L7.47656 52.3687C7.13964 53.0782 6.77801 53.7756 6.39234 54.4597C6.12174 54.9244 5.8894 55.3891 5.65707 55.8929C5.6188 55.9321 5.6188 55.9704 5.65707 56.0095C5.69625 56.0478 5.73451 56.087 5.77369 56.087H8.5216C8.56078 56.087 8.63823 56.0478 8.63823 56.0095C9.20963 54.8936 9.73906 53.7566 10.2254 52.6011C11.8508 48.8045 13.1282 45.2411 14.0967 41.9875C14.0967 41.9493 14.0967 41.9101 14.0575 41.8718C13.9801 41.7944 13.9418 41.7944 13.9026 41.7944ZM22.9226 49.773C22.9213 49.7529 22.9128 49.7339 22.8985 49.7197C22.8843 49.7054 22.8653 49.6968 22.8452 49.6955H22.7286C22.109 49.9279 20.9865 50.0828 20.2121 50.0828C18.4709 50.0828 17.6573 49.6181 17.6573 46.985C17.6573 44.8539 17.9288 43.8854 20.2121 43.8854C20.8708 43.8854 21.4512 43.9628 22.2256 44.1952C22.3031 44.1952 22.3413 44.1952 22.3805 44.1177L23.3864 42.1042V41.9875C23.3851 41.9674 23.3765 41.9485 23.3623 41.9342C23.348 41.92 23.3291 41.9114 23.3089 41.9101C22.242 41.5859 21.134 41.4162 20.0189 41.4062C16.4191 41.4063 14.7928 43.1109 14.7928 46.9458C14.7928 50.8189 16.4191 52.5619 20.0189 52.5619C20.9091 52.5619 22.7286 52.3687 23.5805 52.0198C23.6579 51.9806 23.6962 51.9032 23.6579 51.8257L22.9226 49.773ZM46.4967 41.7944H43.9811C43.9037 41.7944 43.8645 41.8327 43.8645 41.9101C43.4773 43.4982 42.6646 46.093 41.5804 48.8437L39.0648 41.8718C39.0256 41.8327 38.9873 41.7944 38.9482 41.7944H36.3934C36.3551 41.7944 36.316 41.8327 36.2777 41.8718C36.2385 41.9101 36.2385 41.9493 36.2777 41.9875L40.0707 52.3687C39.7337 53.0782 39.3721 53.7756 38.9864 54.4597C38.7158 54.9244 38.4835 55.3891 38.2512 55.8929C38.2129 55.9321 38.2129 55.9704 38.2512 56.0095C38.2903 56.0478 38.3286 56.087 38.3678 56.087H41.1157C41.1549 56.087 41.2323 56.0478 41.2323 56.0095C41.8037 54.8936 42.3332 53.7566 42.8195 52.6011C44.4066 48.8045 45.7223 45.2411 46.6908 41.9875C46.6908 41.9493 46.6908 41.9101 46.6516 41.8718C46.5742 41.7944 46.5359 41.7944 46.4967 41.7944ZM55.7873 41.7552H48.4711C48.4309 41.758 48.3931 41.7752 48.3647 41.8036C48.3362 41.8321 48.319 41.8699 48.3162 41.9101V52.0972C48.3162 52.1747 48.3937 52.2521 48.4711 52.2521H50.9493C51.0259 52.2521 51.1042 52.1747 51.1042 52.0972V44.1952H54.9354C54.9746 44.1952 55.0521 44.1569 55.0521 44.1177C55.3618 43.4207 55.6324 42.6845 55.9422 41.9493V41.8327C55.8648 41.7944 55.8265 41.7552 55.7873 41.7552Z" fill="#EF3E58"/>
<path d="M16.8446 26.107C13.2831 26.107 11.89 27.6559 11.89 31.5682C11.89 35.558 13.284 37.1078 16.8446 37.1078C20.4444 37.1078 21.8375 35.558 21.8375 31.5682C21.8375 27.6559 20.4444 26.107 16.8446 26.107ZM16.8446 34.861C15.2192 34.861 14.7154 34.4346 14.7154 31.6457C14.7154 28.7028 15.2575 28.4313 16.8446 28.4313C18.471 28.4313 19.0131 28.7019 19.0131 31.6457C19.0131 34.3963 18.5092 34.861 16.8446 34.861ZM31.7486 34.4346C31.7473 34.4145 31.7387 34.3955 31.7245 34.3813C31.7102 34.367 31.6912 34.3584 31.6711 34.3572H31.5545C30.9349 34.5895 29.8125 34.7444 29.0389 34.7444C27.2969 34.7444 26.4833 34.2797 26.4833 31.6466C26.4833 29.5146 26.7156 28.547 29.0389 28.547C29.6968 28.547 30.278 28.6244 31.0516 28.8568C31.129 28.8568 31.1673 28.8568 31.2065 28.7793L32.2123 26.7658V26.6492C32.211 26.629 32.2025 26.6101 32.1882 26.5958C32.174 26.5816 32.155 26.573 32.1349 26.5717C31.0682 26.2476 29.9606 26.0779 28.8458 26.0679C25.2451 26.0679 23.6187 27.7717 23.6187 31.6074C23.6187 35.4796 25.2451 37.2235 28.8449 37.2235C29.735 37.2235 31.5545 37.0294 32.4064 36.6814C32.4838 36.6422 32.5221 36.5648 32.4838 36.4873L31.7486 34.4346ZM3.79933 26.4168C3.75916 26.4196 3.72135 26.4368 3.69288 26.4653C3.66441 26.4937 3.6472 26.5315 3.64444 26.5717V36.7579C3.64444 36.8363 3.72188 36.9128 3.79933 36.9128H6.27755C6.35408 36.9128 6.43244 36.8363 6.43244 36.7579V28.8568H10.2637C10.3028 28.8568 10.3803 28.8185 10.3803 28.7793C10.6901 28.0823 10.9607 27.3462 11.2704 26.6109V26.4943C11.2313 26.4551 11.193 26.4168 11.1538 26.4168H3.79933Z" fill="#0F67B1"/>
<path fill-rule="evenodd" clip-rule="evenodd" d="M77.9687 51.168V51.0131C77.9687 50.9357 77.9687 50.819 78.0079 50.7416C78.1236 49.3084 78.201 47.5655 78.2785 45.551V45.3961L78.3559 41.0583C78.3559 39.5477 78.3177 38.0753 78.2785 36.7196V36.5647L78.0079 31.375C78.0079 31.2967 78.0079 31.181 77.9687 31.1035V30.9486C77.9687 30.7937 77.9305 30.6771 77.9305 30.5222V30.3673C77.8138 28.8567 77.7364 27.9274 77.6981 27.8499C77.6981 27.695 77.6589 27.5402 77.6589 27.4235V27.3078C77.626 27.0463 77.5742 26.7875 77.5041 26.5334C77.5041 26.4942 77.5041 26.455 77.4658 26.4168C76.808 23.2789 75.0659 19.8322 72.8975 17.2364C72.0465 16.2296 71.1554 15.3386 70.227 14.6416C66.7296 12.0628 63.0983 9.67085 59.3483 7.47567C53.6584 4.10547 48.5489 1.78122 47.8911 1.47144C47.8519 1.47144 47.8519 1.43318 47.8519 1.43318C46.3422 0.774444 44.5227 0.309778 42.5493 0.116622C42.162 0.0774444 41.7748 0.0391778 41.3876 0.0391778C41.0386 0.0391778 40.6906 0 40.3426 0H39.8004C37.1291 0.0391778 34.6909 0.542111 32.7548 1.43318C32.4451 1.5498 27.2973 3.9114 21.4516 7.32078L21.2192 7.43649C17.4841 9.66901 13.8543 12.0733 10.3415 14.6416C8.87096 15.7258 7.5544 17.1198 6.35447 18.9019C6.08387 19.3283 6.08387 20.3351 7.24463 20.3351H10.2258C11.5032 20.3351 11.8129 19.5606 13.2452 18.5147C14.8324 17.353 17.9675 15.0288 23.6966 11.6203C27.8385 9.18036 31.7098 7.2816 33.5675 6.39053C33.6067 6.39053 33.645 6.35227 33.6842 6.35227C33.6842 6.35227 33.7224 6.35227 33.7224 6.314C33.7224 6.314 33.7616 6.314 33.7616 6.27482C33.7999 6.27482 33.839 6.23656 33.839 6.23656C33.8773 6.23656 33.9165 6.19738 33.9548 6.19738C34.4194 5.96504 34.7292 5.84842 34.7292 5.84842C36.0458 5.26804 37.9035 4.88082 39.877 4.84164H40.6514C41.2327 4.84164 41.8131 4.88082 42.3552 4.95827C43.5551 5.11316 44.6394 5.34549 45.5295 5.73271C45.607 5.77098 45.7227 5.81016 45.8001 5.84842C49.5812 7.60762 53.276 9.54655 56.8719 11.6586C60.4688 13.7809 63.9569 16.0822 67.3233 18.5539C68.0586 19.096 68.7947 19.8704 69.4917 20.7223C71.2329 22.9691 72.6651 26.0295 72.8975 28.392C72.8975 28.4312 73.0141 29.3606 73.1298 30.9486C73.1298 31.0643 73.1298 31.1418 73.169 31.2584V31.4907C73.169 31.6456 73.2073 31.7622 73.2073 31.9171V32.072C73.2073 32.1495 73.2073 32.2652 73.2464 32.3426C73.2464 32.5367 73.2847 32.7298 73.2847 32.9239C73.2847 33.0405 73.2847 33.1562 73.3239 33.2729V33.3503C73.3239 33.5052 73.3239 33.6209 73.3621 33.7758V34.0856C73.6236 38.7049 73.6236 43.3334 73.3621 47.9527V48.2625C73.3621 48.4174 73.3621 48.534 73.3239 48.6889V48.7663C73.3239 48.882 73.3239 48.9986 73.2847 49.1144C73.2847 49.3084 73.2464 49.5025 73.2464 49.6956C73.2464 49.8123 73.2464 49.8897 73.2073 49.9672V50.122C73.2073 50.2769 73.169 50.3926 73.169 50.5475V50.7808C73.169 50.8965 73.169 51.0131 73.1298 51.0906C73.0141 52.6786 72.8975 53.6462 72.8975 53.6462C72.6651 56.0096 71.2329 59.0692 69.4908 61.316C68.7947 62.207 68.0586 62.9432 67.3233 63.4844C67.285 63.4844 66.2783 64.2598 64.6137 65.4214C58.7133 69.5153 52.4706 73.0923 45.955 76.1124L45.8001 76.1898C45.7227 76.229 45.607 76.2673 45.5295 76.3065C44.6394 76.6545 43.5551 76.926 42.3552 77.0809C41.8131 77.1584 41.2327 77.1966 40.6514 77.1966H39.877C37.9035 77.1584 36.0458 76.8094 34.7292 76.1898C34.7292 76.1898 34.4586 76.0741 33.9548 75.8409C33.9165 75.8026 33.8391 75.8026 33.7999 75.7634C33.7616 75.7252 33.7224 75.7252 33.6842 75.686C33.645 75.686 33.645 75.6477 33.6067 75.6477C33.5675 75.6477 33.5293 75.6086 33.491 75.6086C33.4518 75.5703 33.4136 75.5703 33.3361 75.5311H33.2969C30.0114 73.9671 26.7952 72.2614 23.6574 70.4189C17.89 67.0487 14.7932 64.6862 13.2069 63.5236C11.7738 62.4776 11.464 61.7032 10.1866 61.7032H7.24463C6.08387 61.7032 6.08387 62.7109 6.35447 63.0972C7.5544 64.8802 8.87096 66.2742 10.3415 67.3584C10.5356 67.5133 15.2579 70.9992 21.2202 74.5243C21.529 74.7184 21.8388 74.9116 22.1868 75.0664C27.7228 78.2426 32.4842 80.4119 32.7557 80.5668C34.6518 81.4187 37.1291 81.9226 39.7622 82H40.3034C40.6523 82 41.0004 82 41.3484 81.9608C41.7356 81.9608 42.1229 81.9226 42.5101 81.8834C44.4845 81.6902 46.3422 81.2256 47.8128 80.5668C47.8128 80.5668 47.8519 80.5668 47.8519 80.5286C48.5098 80.2188 53.6193 77.8554 59.3101 74.5243C62.0373 72.9096 64.7099 71.2042 67.3233 69.4112L70.1878 67.3584C71.1172 66.6614 72.0073 65.7704 72.8592 64.7636C75.0277 62.1678 76.7688 58.7211 77.4266 55.5832C77.4266 55.545 77.4266 55.5058 77.4658 55.4675C77.5041 55.196 77.5815 54.9245 77.6207 54.6931V54.5756C77.6589 54.4207 77.6589 54.2658 77.6589 54.1492C77.6589 54.0717 77.7756 53.1424 77.8913 51.6318V51.4769C77.9687 51.4377 77.9687 51.2837 77.9687 51.168Z" fill="url(#paint0_linear_1_2423)"/>
<path d="M34.3033 41.7554H26.7156C26.6382 41.7554 26.5999 41.7946 26.5607 41.872C26.3676 45.3187 25.7097 48.9987 24.7804 52.02C24.7804 52.0582 24.7804 52.0974 24.8187 52.1357C24.8578 52.1748 24.8961 52.1748 24.9353 52.1748H27.5292C27.6058 52.1748 27.6449 52.1357 27.6449 52.0974C28.3802 49.7741 28.9615 46.7519 29.1938 44.1953H31.6711V52.0582C31.6711 52.1357 31.7486 52.2131 31.826 52.2131H34.3033C34.3808 52.2131 34.4582 52.1357 34.4582 52.0582V41.872C34.4582 41.8328 34.3808 41.7554 34.3033 41.7554Z" fill="#EF3E58"/>
<defs>
<linearGradient id="paint0_linear_1_2423" x1="3614.09" y1="-0.738" x2="3614.09" y2="8213.94" gradientUnits="userSpaceOnUse">
<stop offset="0.4" stop-color="#1466AC"/>
<stop offset="0.66" stop-color="#EF4058"/>
</linearGradient>
</defs>
</svg>
