<svg width="245" height="245" viewBox="0 0 245 245" fill="none" xmlns="http://www.w3.org/2000/svg">
<g opacity="0.5">
<path d="M69.6048 224.694C69.6048 229.238 96.2007 232.922 129.008 232.922C161.816 232.922 188.412 229.238 188.412 224.694C188.412 220.15 161.816 216.467 129.008 216.467C96.2007 216.467 69.6048 220.15 69.6048 224.694Z" fill="url(#paint0_radial_1_2430)"/>
</g>
<path fill-rule="evenodd" clip-rule="evenodd" d="M170.382 86.7372C161.527 97.7276 160.136 112.049 171.708 121.596C183.281 131.142 198.952 125.5 205.436 114.258C214.93 97.7954 219.576 73.7711 210.91 67.7396C202.244 61.7078 179.382 75.5674 170.382 86.7372Z" fill="url(#paint1_linear_1_2430)"/>
<path fill-rule="evenodd" clip-rule="evenodd" d="M170.382 86.7372C161.527 97.7276 160.136 112.049 171.708 121.596C183.281 131.142 198.952 125.5 205.436 114.258C214.93 97.7954 219.576 73.7711 210.91 67.7396C202.244 61.7078 179.382 75.5674 170.382 86.7372Z" fill="url(#paint2_radial_1_2430)"/>
<path fill-rule="evenodd" clip-rule="evenodd" d="M69.6493 142.508L61.2822 84.6801C56.7088 53.0718 78.6577 23.6971 110.266 19.1237C141.874 14.5503 171.249 36.4991 175.823 68.1073L184.585 128.668C192.516 183.484 75.9338 185.943 69.6493 142.508Z" fill="url(#paint3_radial_1_2430)"/>
<path fill-rule="evenodd" clip-rule="evenodd" d="M180.316 65.1126L188.788 123.666C193.747 157.937 169.949 189.786 135.678 194.745C101.406 199.704 69.5568 175.906 64.5981 141.635L55.6973 80.1181C55.0658 75.7538 56.5906 73.0128 61.2451 73.7308C67.4374 74.6862 70.2135 76.2636 75.3381 83.2789C80.0774 89.7674 97.0239 113.244 100.886 117.839C108.592 127.004 120.27 137.716 147.386 133.793C167.747 130.847 182.605 111.951 180.066 94.4025L174.963 59.1284C174.606 56.6628 179.475 59.2983 180.316 65.1126Z" fill="url(#paint4_linear_1_2430)"/>
<path fill-rule="evenodd" clip-rule="evenodd" d="M135.198 191.433C155.295 188.525 162.959 183.856 176.491 170.798C166.877 183.35 152.546 192.306 135.678 194.746C119.23 197.126 103.34 192.882 90.7121 184.036C102.262 188.69 113.545 194.566 135.198 191.433Z" fill="white" fill-opacity="0.05"/>
<path fill-rule="evenodd" clip-rule="evenodd" d="M139.811 156.588C139.898 158.422 140.735 166.015 140.858 167.463C140.98 168.912 142.168 169.875 143.48 170.543C144.792 171.211 149.916 173.294 151.691 173.711C153.466 174.128 155.245 173.732 156.612 172.999C157.98 172.266 163.079 167.785 163.981 166.649C164.883 165.513 165.603 163.506 165.652 161.662C165.703 159.722 165.454 155.458 165.324 154.306C165.095 152.26 164.821 151.621 163.393 150.548C161.624 149.218 157.405 147.16 155.573 146.405C153.802 145.675 151.192 145.915 149.213 147.369C147.68 148.496 142.954 151.916 141.641 153.051C140.328 154.185 139.75 155.298 139.811 156.588Z" fill="url(#paint5_radial_1_2430)"/>
<path fill-rule="evenodd" clip-rule="evenodd" d="M142.976 156.616C143.027 157.709 143.526 162.232 143.599 163.095C143.672 163.958 144.38 164.532 145.161 164.93C145.943 165.328 148.995 166.568 150.053 166.817C151.11 167.065 152.17 166.829 152.985 166.393C153.799 165.956 156.837 163.286 157.374 162.61C157.911 161.933 158.341 160.738 158.37 159.639C158.4 158.483 158.252 155.943 158.174 155.257C158.038 154.038 157.874 153.657 157.024 153.018C155.97 152.226 153.457 151 152.365 150.55C151.31 150.116 149.755 150.258 148.577 151.125C147.663 151.796 144.848 153.833 144.066 154.509C143.284 155.185 142.939 155.848 142.976 156.616Z" fill="white"/>
<path fill-rule="evenodd" clip-rule="evenodd" d="M139.811 156.589C139.898 158.422 140.735 166.016 140.858 167.464C140.678 164.174 140.155 158.04 140.099 156.628C140.035 154.981 141.076 154.002 141.859 153.325C143.715 151.72 147.868 148.766 149.351 147.676C150.862 146.566 153.534 145.907 155.423 146.743C157.615 147.713 160.983 149.264 163.171 150.766C164.607 151.753 164.864 152.351 165.324 154.307C165.095 152.261 164.821 151.621 163.393 150.548C161.624 149.219 157.405 147.161 155.573 146.406C153.802 145.676 151.192 145.916 149.213 147.37C147.68 148.496 142.954 151.917 141.641 153.052C140.328 154.186 139.75 155.299 139.811 156.589Z" fill="#0042C3"/>
<path fill-rule="evenodd" clip-rule="evenodd" d="M165.323 154.306C165.554 155.916 165.748 157.899 165.892 161.623C165.945 162.993 165.521 165.606 164.164 166.986C162.006 169.178 159.193 171.846 156.831 173.282C154.872 174.474 152.767 174.384 151.631 174.039C148.532 173.099 145.282 171.657 143.215 170.764C141.054 169.831 140.924 168.694 140.856 167.464C140.978 168.912 142.167 169.875 143.478 170.543C144.79 171.211 149.914 173.294 151.69 173.711C153.465 174.128 155.244 173.732 156.611 172.999C157.979 172.266 163.078 167.785 163.979 166.65C164.881 165.514 165.602 163.507 165.651 161.662C165.702 159.722 165.453 155.458 165.323 154.306Z" fill="#98B5FF"/>
<path fill-rule="evenodd" clip-rule="evenodd" d="M56.2872 84.1947L55.6973 80.1181C55.0659 75.7538 56.5908 73.0125 61.2454 73.7309C67.4374 74.686 70.2136 76.2635 75.3383 83.2791C80.0777 89.7674 97.0239 113.244 100.886 117.838C108.592 127.004 120.27 137.716 147.386 133.793C167.747 130.847 182.605 111.951 180.066 94.4024L174.962 59.1283C174.606 56.663 179.474 59.2983 180.316 65.1125L184.414 93.4351C187.272 113.19 174.91 134.348 148.659 138.146C118.704 142.48 105.044 132.415 95.7533 119.55C88.2538 109.166 73.3177 88.7731 69.52 83.6967C65.036 77.7024 61.0022 78.2864 58.2188 77.9938C55.5135 77.7097 55.9376 81.7787 56.2872 84.1947Z" fill="url(#paint6_linear_1_2430)"/>
<path fill-rule="evenodd" clip-rule="evenodd" d="M123.41 104.509C126.397 106.122 129.158 107.279 131.793 107.949C134.028 108.517 136.153 108.708 138.143 108.591C139.045 108.539 139.922 108.406 140.764 108.192C142.084 107.856 143.333 107.38 144.487 106.719C147.153 105.191 149.389 102.987 151.238 100.023C151.778 99.3429 151.665 98.3521 150.985 97.8118C150.304 97.2716 149.314 97.3853 148.773 98.0653C147.126 99.6988 145.35 100.803 143.482 101.649C142.388 102.144 141.247 102.442 140.056 102.688C139.292 102.847 138.507 102.955 137.692 103.038C135.757 103.238 133.674 103.229 131.36 102.887C129.301 102.582 127.1 102.164 124.713 101.423C123.861 101.064 122.878 101.463 122.518 102.315C122.159 103.166 122.558 104.15 123.41 104.509Z" fill="white"/>
<path fill-rule="evenodd" clip-rule="evenodd" d="M104.096 84.2626C105.602 82.653 107.348 81.4639 109.145 80.491C110.989 79.492 112.925 78.9025 114.829 78.5861C115.602 78.4579 116.365 78.3698 117.12 78.3366C118.277 78.2862 119.405 78.3154 120.49 78.5681C122.335 78.9974 124.076 79.7878 125.464 81.2935C125.982 81.9803 126.961 82.1173 127.648 81.5989C128.335 81.0802 128.471 80.1018 127.953 79.4146C126.136 76.4675 123.403 74.6475 120.286 73.7965C119.049 73.4589 117.743 73.327 116.415 73.3617C115.572 73.384 114.718 73.4902 113.872 73.6804C111.904 74.123 109.94 74.9232 108.132 76.1021C105.703 77.6848 103.537 79.8474 101.849 82.5378C101.373 83.1577 101.49 84.0478 102.11 84.5237C102.73 84.9996 103.62 84.8826 104.096 84.2626Z" fill="white"/>
<path fill-rule="evenodd" clip-rule="evenodd" d="M165.137 73.4891C162.792 70.6615 159.976 69.0598 157.106 68.3901C155.655 68.0514 154.184 68.0242 152.762 68.2061C151.984 68.3057 151.219 68.4875 150.488 68.7514C149.39 69.1477 148.345 69.6844 147.412 70.3841C145.191 72.05 143.455 74.3555 142.573 77.1588C142.229 77.9476 142.589 78.8677 143.378 79.2121C144.167 79.5566 145.087 79.1961 145.431 78.4073C146.323 76.8644 147.623 75.7381 149.044 74.8251C149.868 74.2956 150.77 73.9321 151.696 73.6214C152.297 73.42 152.912 73.2632 153.541 73.1434C155.096 72.847 156.723 72.7842 158.389 73.2245C159.984 73.6458 161.609 74.3049 163.156 75.5141C163.715 76.0608 164.612 76.0507 165.159 75.492C165.706 74.9332 165.696 74.0357 165.137 73.4891Z" fill="white"/>
<path d="M58.3751 99.7724C48.6128 103.639 46.4141 121.203 53.4641 139.002C60.5142 156.801 74.1434 168.095 83.9057 164.228C93.6681 160.361 95.8668 142.798 88.8167 124.999C81.7666 107.2 68.1375 95.9056 58.3751 99.7724Z" fill="url(#paint7_radial_1_2430)"/>
<path fill-rule="evenodd" clip-rule="evenodd" d="M34.676 123.939C44.5265 113.831 58.5785 110.734 69.4425 121.08C80.3065 131.426 76.5823 147.66 66.1978 155.444C50.9908 166.842 27.6959 174.332 20.6698 166.451C13.6434 158.57 24.6647 134.212 34.676 123.939Z" fill="url(#paint8_linear_1_2430)"/>
<path fill-rule="evenodd" clip-rule="evenodd" d="M34.676 123.939C44.5265 113.831 58.5785 110.734 69.4425 121.08C80.3065 131.426 76.5823 147.66 66.1978 155.444C50.9908 166.842 27.6959 174.332 20.6698 166.451C13.6434 158.57 24.6647 134.212 34.676 123.939Z" fill="url(#paint9_radial_1_2430)"/>
<defs>
<radialGradient id="paint0_radial_1_2430" cx="0" cy="0" r="1" gradientUnits="userSpaceOnUse" gradientTransform="translate(130.86 224.934) rotate(-179.775) scale(61.2555 8.49569)">
<stop stop-color="#334C9D"/>
<stop offset="0.28" stop-color="#334C9D" stop-opacity="0.76"/>
<stop offset="1" stop-color="#334C9D" stop-opacity="0"/>
</radialGradient>
<linearGradient id="paint1_linear_1_2430" x1="174.954" y1="89.7168" x2="206.976" y2="111.036" gradientUnits="userSpaceOnUse">
<stop stop-color="#ACC5FD"/>
<stop offset="1" stop-color="#3966B8"/>
</linearGradient>
<radialGradient id="paint2_radial_1_2430" cx="0" cy="0" r="1" gradientUnits="userSpaceOnUse" gradientTransform="translate(168.661 99.0807) rotate(9.05547) scale(33.6052 33.6052)">
<stop stop-color="#CCDCFF"/>
<stop offset="0.33" stop-color="#B9CFFF" stop-opacity="0.67"/>
<stop offset="1" stop-color="#8BA9E8" stop-opacity="0"/>
</radialGradient>
<radialGradient id="paint3_radial_1_2430" cx="0" cy="0" r="1" gradientUnits="userSpaceOnUse" gradientTransform="translate(99.3527 54.9618) rotate(46.5475) scale(93.4505 93.4505)">
<stop stop-color="#0060D3"/>
<stop offset="0.27" stop-color="#004BB4"/>
<stop offset="1" stop-color="#002176"/>
</radialGradient>
<linearGradient id="paint4_linear_1_2430" x1="138.157" y1="196.325" x2="118.652" y2="87.9673" gradientUnits="userSpaceOnUse">
<stop stop-color="#2667C5"/>
<stop offset="1" stop-color="#C2D2F6"/>
</linearGradient>
<radialGradient id="paint5_radial_1_2430" cx="0" cy="0" r="1" gradientUnits="userSpaceOnUse" gradientTransform="translate(150.938 158.9) rotate(34.052) scale(12.409 12.409)">
<stop stop-color="#D7E2FF"/>
<stop offset="1" stop-color="#0040BF"/>
</radialGradient>
<linearGradient id="paint6_linear_1_2430" x1="61.9248" y1="123.158" x2="184.685" y2="108.435" gradientUnits="userSpaceOnUse">
<stop stop-color="#E6EEFF"/>
<stop offset="0.2" stop-color="#C2D2F6"/>
<stop offset="0.5" stop-color="#FCFCFE"/>
<stop offset="0.8" stop-color="white"/>
<stop offset="1" stop-color="#E1E9FE"/>
</linearGradient>
<radialGradient id="paint7_radial_1_2430" cx="0" cy="0" r="1" gradientUnits="userSpaceOnUse" gradientTransform="translate(71.0227 133.209) rotate(-109.546) scale(33.7259 18.5007)">
<stop stop-color="#00449B"/>
<stop offset="1" stop-color="#77A0E2" stop-opacity="0"/>
</radialGradient>
<linearGradient id="paint8_linear_1_2430" x1="38.1817" y1="128.121" x2="63.1832" y2="157.359" gradientUnits="userSpaceOnUse">
<stop stop-color="#ACC5FD"/>
<stop offset="1" stop-color="#3966B8"/>
</linearGradient>
<radialGradient id="paint9_radial_1_2430" cx="0" cy="0" r="1" gradientUnits="userSpaceOnUse" gradientTransform="translate(44.8554 122.905) rotate(74.0649) scale(33.6052 33.6052)">
<stop stop-color="#B7CDFF"/>
<stop offset="0.33" stop-color="#AAC5FF" stop-opacity="0.67"/>
<stop offset="1" stop-color="#8BA9E8" stop-opacity="0"/>
</radialGradient>
</defs>
</svg>
