<svg width="17" height="17" viewBox="0 0 17 17" fill="none" xmlns="http://www.w3.org/2000/svg">
    <mask id="mask0_199_35" style="mask-type:luminance" maskUnits="userSpaceOnUse" x="0" y="0"
        width="17" height="17">
        <path d="M17 0H0V17H17V0Z" fill="white" />
    </mask>
    <g mask="url(#mask0_199_35)">
        <path
            d="M8.5 17C13.1944 17 17 13.1944 17 8.5C17 3.80558 13.1944 0 8.5 0C3.80558 0 0 3.80558 0 8.5C0 13.1944 3.80558 17 8.5 17Z"
            fill="#22212A" />
        <path
            d="M12.5906 5.3125C14.4376 5.3125 15.9375 6.72258 15.9375 8.5C15.9375 10.2537 14.4376 11.6816 12.5906 11.6816C11.6919 11.6816 10.8552 11.3498 10.223 10.7514L8.5 9.29391L6.74599 10.781C6.14479 11.3557 5.30188 11.6875 4.40938 11.6875C2.5624 11.6875 1.0625 10.2537 1.0625 8.5C1.0625 6.74628 2.5624 5.3125 4.40938 5.3125C5.30188 5.3125 6.14479 5.64428 6.77698 6.24861L8.5 7.70609L10.254 6.21898C10.8552 5.64428 11.6981 5.3125 12.5906 5.3125ZM5.89688 9.91601L7.57031 8.5L5.92167 7.10769C5.50021 6.70481 4.97339 6.49744 4.40938 6.49744C3.25036 6.49744 2.30208 7.39208 2.30208 8.5C2.30208 9.60792 3.25036 10.5026 4.40938 10.5026C4.97339 10.5026 5.50021 10.2952 5.89688 9.91601ZM11.1031 7.08399L9.42969 8.5L11.0783 9.89231C11.4998 10.2952 12.0328 10.5026 12.5906 10.5026C13.7496 10.5026 14.6979 9.60792 14.6979 8.5C14.6979 7.39208 13.7496 6.49744 12.5906 6.49744C12.0266 6.49744 11.4998 6.70481 11.1031 7.08399Z"
            fill="white" />
    </g>
</svg>