<svg width="16" height="17" viewBox="0 0 16 17" fill="none" xmlns="http://www.w3.org/2000/svg">
<g clip-path="url(#clip0_199_14)">
<path d="M15.928 12.7812L15.8484 12.5413C15.6598 11.9807 15.0415 11.396 14.4736 11.2419L12.3715 10.6677C11.8015 10.5126 10.9883 10.7211 10.5712 11.1382L9.81047 11.8989C7.04566 11.1518 4.87761 8.98373 4.13152 6.21945L4.89233 5.45864C5.3094 5.04157 5.5179 4.22949 5.36282 3.65945L4.78962 1.55635C4.63454 0.987349 4.04877 0.36912 3.48922 0.182581L3.24926 0.101903C2.68864 -0.0846353 1.8891 0.104016 1.47207 0.521053L0.334058 1.6601C0.130753 1.86233 0.000816572 2.44076 0.000816572 2.44287C-0.0389859 6.05595 1.37774 9.53697 3.93348 12.0927C6.48296 14.6422 9.95094 16.0569 13.5535 16.0265C13.5724 16.0265 14.1676 15.8986 14.3709 15.6964L15.5089 14.5584C15.9259 14.1414 16.1145 13.3419 15.928 12.7812Z" fill="#22212A"/>
</g>
<defs>
<clipPath id="clip0_199_14">
<rect width="16" height="17" fill="white"/>
</clipPath>
</defs>
</svg>
