<svg width="16" height="16" viewBox="0 0 16 16" fill="none" xmlns="http://www.w3.org/2000/svg">
<g clip-path="url(#clip0_199_18)">
<path d="M7.99979 0C3.58092 0 0 3.325 0 7.42857C0 9.19964 0.668456 10.8214 1.78099 12.0964C1.39035 13.8961 0.0837523 15.5 0.0681268 15.5179C-0.00042814 15.6 -0.0189849 15.7214 0.0210568 15.8286C0.0339478 15.9357 0.149982 16 0.249579 16C2.32182 16 3.87468 14.8643 4.64345 14.1639C5.66535 14.6036 6.79975 14.8571 7.99979 14.8571C12.4187 14.8571 16 11.5321 16 7.42857C16 3.325 12.4187 0 7.99979 0ZM5.22784 8.56786C5.12158 9.25357 4.57157 9.71429 3.78405 9.71429C3.65808 9.71429 3.52623 9.70312 3.3906 9.67857C3.15903 9.63571 2.89996 9.52857 2.67152 9.43214C2.41176 9.325 2.23213 8.98 2.32495 8.68322C2.41776 8.38643 2.65589 8.18214 2.91777 8.31786C3.13587 8.40707 3.37185 8.51247 3.57029 8.54779C3.9278 8.61071 4.21843 8.53571 4.24344 8.37143C4.27634 8.16029 3.90468 8.07157 3.47591 7.93071C3.09715 7.80461 2.09213 7.4675 2.2687 6.28786C2.39564 5.45286 3.12216 5.00536 4.08124 5.1775C4.26581 5.20986 4.47 5.27907 4.6622 5.35496C4.92295 5.45764 5.06158 5.78354 4.97177 6.08139C4.88408 6.38214 4.5997 6.53929 4.33719 6.43571C4.20143 6.38214 4.05787 6.33079 3.92811 6.30736C3.57748 6.24821 3.2806 6.32186 3.25622 6.48257C3.22466 6.68571 3.54967 6.76786 3.88718 6.87857C4.41844 7.05357 5.40909 7.375 5.22784 8.56786ZM9.99984 9.14286C9.99984 9.45871 9.77621 9.71429 9.49983 9.71429C9.22344 9.71429 8.99981 9.45714 8.99981 9.14286V7.42857L8.40011 8.3425C8.21067 8.63043 7.78916 8.63043 7.59946 8.3425L6.99976 7.42857V9.14286C6.99976 9.45871 6.77613 9.71429 6.49975 9.71429C6.22336 9.71429 5.99973 9.45714 5.99973 9.14286V5.71429C5.99973 5.46875 6.13742 5.28214 6.34162 5.17214C6.54475 5.09736 6.77007 5.17424 6.90007 5.37179L7.99979 7.04643L9.0995 5.37036C9.22938 5.17282 9.45576 5.09707 9.65796 5.17071C9.86234 5.25 9.99984 5.46786 9.99984 5.71429V9.14286ZM13.7281 8.56786C13.6218 9.25357 13.0718 9.71429 12.2843 9.71429C12.1583 9.71429 12.0265 9.70312 11.8908 9.67857C11.633 9.63393 11.3733 9.52679 11.1446 9.43193C10.8848 9.32479 10.7052 8.97979 10.798 8.683C10.8908 8.38621 11.1289 8.213 11.3908 8.31907C11.6089 8.40829 11.8449 8.51368 12.0433 8.549C12.4008 8.61039 12.6927 8.53561 12.7171 8.37264C12.75 8.1615 12.3783 8.07279 11.9496 7.93193C11.5708 7.80582 10.5658 7.46871 10.7424 6.28907C10.8683 5.45407 11.5939 5.00657 12.5549 5.17871C12.7395 5.21108 12.9437 5.28029 13.1359 5.35618C13.3966 5.45886 13.5352 5.78475 13.4454 6.08261C13.3556 6.38061 13.0723 6.54011 12.8098 6.43639C12.674 6.38282 12.5305 6.33146 12.4007 6.30804C12.051 6.24889 11.7532 6.32254 11.7288 6.48325C11.7249 6.68571 12.0499 6.76786 12.3874 6.87857C12.9187 7.05357 13.9093 7.375 13.7281 8.56786Z" fill="#22212A"/>
</g>
<defs>
<clipPath id="clip0_199_18">
<rect width="16" height="16" fill="white"/>
</clipPath>
</defs>
</svg>
