<svg width="280" height="59" viewBox="0 0 280 59" fill="none" xmlns="http://www.w3.org/2000/svg">
<g clip-path="url(#clip0_1_2874)">
<path d="M47.3296 30.2588C47.0938 30.4301 46.8408 30.5592 46.5765 30.6519C44.3541 31.4353 41.3104 29.5737 39.6649 28.3664C38.8493 27.7655 37.866 27.437 36.8485 27.437H36.7803C36.732 27.437 36.6865 27.437 36.6382 27.4398C32.2361 27.5549 30.2723 33.0301 33.6883 35.8519C34.2197 36.2927 34.8023 36.6914 35.4219 37.0368H7.78394C7.57932 37.034 7.36902 37.0368 7.15872 37.0396C6.96546 37.0396 6.76937 37.0424 6.56475 37.0424C4.09225 37.0424 0.801279 36.756 0.0822663 32.6202L0.0652146 32.4657C0.0311112 31.8677 0.0396371 31.2752 0.0538468 30.7024C0.0566887 30.4385 0.0623726 30.1746 0.0623726 29.9135V19.5163C0.0623726 18.8115 0.0367951 18.278 0.0197434 17.8541C-0.0711989 15.81 0.164683 15.4394 1.84712 13.78L9.95803 5.77221C10.3644 5.36789 10.6742 5.01691 10.9499 4.70806C12.2202 3.2789 12.9478 2.737 15.5567 2.73419H36.0954C32.2645 4.91864 30.2978 8.66702 30.4684 13.5919C30.6446 18.7862 33.441 21.7793 39.4717 23.2169C39.8752 23.3096 40.2816 23.3742 40.6823 23.4696C42.6831 23.9385 44.7463 24.2418 46.6675 24.924C49.0462 25.7692 49.3446 28.7932 47.3325 30.2588H47.3296Z" fill="#731982"/>
<path d="M53.682 11.8236C55.5122 10.7483 56.325 8.3055 55.066 6.30074C55.0547 6.28109 55.0433 6.26705 55.0319 6.2474C52.0592 1.53314 45.0084 -0.418263 38.8925 1.52472C38.3014 1.71003 37.7415 1.92623 37.2101 2.17051C38.1451 1.60053 39.1994 1.12882 40.3589 0.758195C46.5999 -1.22409 53.7928 0.769426 56.8309 5.57634C56.8394 5.59599 56.8536 5.61003 56.8621 5.62968C58.5019 8.24092 56.6973 11.5794 53.6848 11.8208L53.682 11.8236Z" fill="#731982"/>
<path d="M59.4507 26.4913C59.1836 20.6231 56.8304 17.8602 50.5952 16.2457C50.5895 16.2457 50.5838 16.2429 50.5781 16.2401C49.5664 15.979 48.8559 15.0861 48.8559 14.0529V12.1885C48.8559 11.2254 48.4609 10.3017 47.7618 9.63063L47.7504 9.6194C46.5596 8.47944 44.6129 7.9937 42.8281 8.41206C41.8306 8.6451 40.8814 9.16173 40.1397 10.0069C38.5766 11.7842 39.0739 14.1708 41.3844 14.9092C43.8143 15.687 46.3749 16.0436 48.8559 16.6781C48.8787 16.6838 48.9042 16.6894 48.9241 16.6978C55.0315 18.2814 57.342 20.9881 57.6034 26.7412C57.8393 31.9889 54.8496 36.327 49.6062 38.0285C47.8754 38.5872 46.1362 38.9073 44.3969 38.9831C46.6904 39.0786 48.998 38.7501 51.2886 38.006C56.6372 36.2708 59.6923 31.8457 59.4479 26.4885L59.4507 26.4913Z" fill="#731982"/>
<path d="M64.9014 16.714C63.9664 16.714 63.2304 16.495 62.6961 16.0541C62.1618 15.6133 61.8946 15.0096 61.8946 14.2375C61.8946 13.4654 62.1618 12.8449 62.6961 12.3703C63.2304 11.8958 63.9664 11.66 64.9014 11.66C65.8364 11.66 66.5384 11.8958 67.0755 12.3703C67.6098 12.8449 67.8769 13.4654 67.8769 14.2375C67.8769 15.0096 67.6098 15.6133 67.0755 16.0541C66.5412 16.495 65.8165 16.714 64.9014 16.714ZM62.5625 37.0591V19.0276H67.2091V37.0591H62.5625Z" fill="#22212A"/>
<path d="M91.3945 18.6951C92.4631 18.6951 93.4663 18.8889 94.4041 19.2735C95.3391 19.6582 96.1491 20.2422 96.8283 21.0228C97.5075 21.8033 98.0475 22.7776 98.451 23.9457C98.8518 25.1137 99.0535 26.4671 99.0535 28.0085V37.058H94.3728V28.0085C94.3728 26.599 94.0887 25.4647 93.5203 24.6055C92.9519 23.7463 92.0339 23.3167 90.7636 23.3167C89.4932 23.3167 88.6065 23.7463 88.0381 24.6055C87.4698 25.4647 87.1856 26.599 87.1856 28.0085V37.058H82.539V28.0085C82.539 26.599 82.2491 25.4647 81.6693 24.6055C81.0896 23.7463 80.1773 23.3167 78.9269 23.3167C77.6764 23.3167 76.7386 23.7463 76.1702 24.6055C75.6018 25.4647 75.3176 26.599 75.3176 28.0085V37.058H70.671V19.0264H75.3176V21.2053C75.7183 20.436 76.3094 19.8239 77.0881 19.3718C77.8668 18.9198 78.8274 18.6951 79.9642 18.6951C81.28 18.6951 82.431 18.9928 83.4228 19.588C84.4147 20.1833 85.2104 21.0424 85.8129 22.1627C86.8815 19.8519 88.7429 18.6951 91.3945 18.6951Z" fill="#22212A"/>
<path d="M110.802 32.7651C111.961 32.7651 112.925 32.4956 113.692 31.9565C114.462 31.4174 115.002 30.6733 115.315 29.7271H120.095C119.939 30.8952 119.603 31.9453 119.092 32.8803C118.58 33.8152 117.915 34.6211 117.102 35.2921C116.289 35.9632 115.352 36.4798 114.294 36.8448C113.234 37.207 112.072 37.3895 110.802 37.3895C109.375 37.3895 108.076 37.1621 106.908 36.7129C105.737 36.2608 104.74 35.6291 103.916 34.8148C103.091 34.0006 102.449 33.0206 101.994 31.8751C101.537 30.7295 101.31 29.4548 101.31 28.0453C101.31 26.6358 101.537 25.3582 101.994 24.2155C102.452 23.0699 103.091 22.09 103.916 21.2757C104.74 20.4615 105.737 19.8269 106.908 19.3777C108.079 18.9256 109.375 18.701 110.802 18.701C112.072 18.701 113.237 18.8835 114.294 19.2457C115.352 19.6079 116.284 20.1217 117.085 20.7815C117.887 21.4414 118.546 22.2472 119.058 23.1934C119.569 24.1396 119.916 25.1982 120.095 26.3634H115.315C115.002 25.4172 114.456 24.6731 113.678 24.134C112.896 23.5949 111.938 23.3254 110.802 23.3254C109.33 23.3254 108.161 23.755 107.292 24.6142C106.422 25.4733 105.987 26.6189 105.987 28.0481C105.987 29.4772 106.422 30.6228 107.292 31.482C108.161 32.3412 109.332 32.7708 110.802 32.7708V32.7651Z" fill="#22212A"/>
<path d="M131.275 18.6951C132.679 18.6951 133.967 18.9198 135.138 19.3718C136.309 19.8239 137.306 20.4556 138.13 21.2699C138.954 22.0841 139.597 23.064 140.051 24.2096C140.509 25.3552 140.736 26.6327 140.736 28.0394V37.0552H136.09V34.8763C135.598 35.6485 134.936 36.2578 134.1 36.7098C133.265 37.1619 132.191 37.3865 130.875 37.3865C129.559 37.3865 128.416 37.1591 127.314 36.7098C126.211 36.2578 125.248 35.626 124.423 34.8118C123.599 33.9975 122.951 33.0176 122.485 31.872C122.016 30.7264 121.783 29.4517 121.783 28.0422C121.783 26.6327 122.011 25.3552 122.468 24.2124C122.926 23.0668 123.565 22.0869 124.389 21.2727C125.214 20.4584 126.211 19.8239 127.382 19.3746C128.553 18.9226 129.849 18.6979 131.275 18.6979V18.6951ZM131.275 32.7649C132.725 32.7649 133.884 32.3353 134.751 31.4761C135.621 30.6169 136.056 29.4742 136.056 28.0422C136.056 26.6102 135.621 25.4675 134.751 24.6083C133.881 23.7491 132.722 23.3195 131.275 23.3195C129.829 23.3195 128.635 23.7491 127.766 24.6083C126.896 25.4675 126.461 26.6131 126.461 28.0422C126.461 29.4714 126.896 30.6169 127.766 31.4761C128.635 32.3353 129.806 32.7649 131.275 32.7649Z" fill="#22212A"/>
<path d="M153.456 18.6951V23.3195H152.854C151.404 23.3195 150.239 23.7491 149.361 24.6083C148.48 25.4675 148.039 26.6131 148.039 28.0422V37.058H143.393V28.0422C143.393 26.6327 143.62 25.3552 144.078 24.2124C144.535 23.0668 145.175 22.0869 145.999 21.2727C146.823 20.4584 147.815 19.8239 148.974 19.3746C150.134 18.9226 151.427 18.6979 152.854 18.6979H153.456V18.6951Z" fill="#22212A"/>
<path d="M173.063 12.9822V28.0095C173.063 29.419 172.833 30.7021 172.378 31.8561C171.921 33.0129 171.282 33.9984 170.457 34.8127C169.633 35.6269 168.636 36.2615 167.465 36.7107C166.294 37.1628 165.006 37.3874 163.603 37.3874C162.199 37.3874 160.877 37.16 159.709 36.7107C158.538 36.2587 157.541 35.6269 156.717 34.8127C155.892 33.9984 155.25 33.0129 154.795 31.8561C154.338 30.6993 154.11 29.419 154.11 28.0095C154.11 26.5999 154.344 25.3561 154.812 24.2105C155.281 23.065 155.926 22.085 156.751 21.2708C157.575 20.4565 158.538 19.822 159.641 19.3727C160.744 18.9207 161.932 18.6961 163.202 18.6961C164.472 18.6961 165.592 18.9207 166.427 19.3727C167.263 19.8248 167.925 20.4341 168.417 21.2062V12.9822H173.063ZM163.603 32.7658C165.052 32.7658 166.211 32.3362 167.078 31.4771C167.948 30.6179 168.383 29.4611 168.383 28.0095C168.383 26.5578 167.948 25.4656 167.078 24.6064C166.209 23.7472 165.049 23.3177 163.603 23.3177C162.156 23.3177 160.962 23.7472 160.093 24.6064C159.223 25.4656 158.788 26.5999 158.788 28.0095C158.788 29.419 159.223 30.6179 160.093 31.4771C160.962 32.3362 162.133 32.7658 163.603 32.7658Z" fill="#22212A"/>
<path d="M186.616 24.0785C186.261 23.9016 185.869 23.7472 185.445 23.6152C185.022 23.4832 184.582 23.3794 184.124 23.3007C183.666 23.2249 183.237 23.1856 182.837 23.1856C182.325 23.1856 181.896 23.2642 181.549 23.4159C181.202 23.5703 181.032 23.8342 181.032 24.2076C181.032 24.6035 181.242 24.9236 181.669 25.1651C182.092 25.4066 182.626 25.6508 183.274 25.8923C183.919 26.1338 184.616 26.3865 185.363 26.6532C186.11 26.9172 186.807 27.2653 187.452 27.6949C188.097 28.1245 188.634 28.658 189.058 29.2981C189.481 29.9383 189.694 30.7301 189.694 31.6763C189.694 32.6226 189.487 33.3891 189.075 34.1051C188.663 34.821 188.1 35.4219 187.387 35.9048C186.673 36.3906 185.843 36.7584 184.897 37.0111C183.951 37.2638 182.942 37.3902 181.87 37.3902C181.001 37.3902 180.199 37.3115 179.463 37.1599C178.727 37.0055 178.065 36.8033 177.474 36.5478C176.883 36.2951 176.371 36.02 175.936 35.7223C175.502 35.4247 175.152 35.1215 174.882 34.8154L176.988 31.0165C177.255 31.258 177.61 31.4966 178.056 31.7269C178.503 31.9571 178.974 32.1621 179.477 32.339C179.978 32.5159 180.492 32.6534 181.015 32.7517C181.538 32.85 182.024 32.9005 182.47 32.9005C183.027 32.9005 183.49 32.8079 183.857 32.6197C184.223 32.4316 184.408 32.12 184.408 31.6791C184.408 31.2383 184.195 30.9238 183.772 30.6711C183.348 30.4184 182.814 30.177 182.166 29.9439C181.518 29.7137 180.824 29.4638 180.077 29.1999C179.33 28.9359 178.633 28.5878 177.988 28.1582C177.34 27.7286 176.806 27.1951 176.383 26.5578C175.959 25.9204 175.749 25.1146 175.749 24.1459C175.749 23.1772 175.945 22.4163 176.334 21.734C176.724 21.0517 177.255 20.4845 177.923 20.0325C178.591 19.5804 179.367 19.2463 180.245 19.0245C181.126 18.8055 182.066 18.6932 183.07 18.6932C184.675 18.6932 186.088 18.9403 187.315 19.4372C188.54 19.9314 189.444 20.4986 190.024 21.1387L187.418 24.64C187.239 24.4407 186.972 24.2554 186.616 24.0785Z" fill="#22212A"/>
<path d="M192.656 36.4971C192.241 36.1237 192.036 35.6295 192.036 35.0146C192.036 34.3997 192.244 33.9083 192.656 33.5321C193.071 33.1586 193.585 32.9705 194.208 32.9705C194.83 32.9705 195.344 33.1586 195.759 33.5321C196.171 33.9083 196.379 34.3997 196.379 35.0146C196.379 35.6295 196.171 36.1237 195.759 36.4971C195.344 36.8733 194.83 37.0586 194.208 37.0586C193.585 37.0586 193.071 36.8733 192.656 36.4971Z" fill="#22212A"/>
<path d="M211.202 24.0785C210.844 23.9016 210.455 23.7472 210.031 23.6152C209.608 23.4832 209.167 23.3794 208.71 23.3007C208.252 23.2249 207.823 23.1856 207.422 23.1856C206.908 23.1856 206.482 23.2642 206.135 23.4159C205.788 23.5703 205.618 23.8342 205.618 24.2076C205.618 24.6035 205.828 24.9236 206.254 25.1651C206.678 25.4066 207.212 25.6508 207.86 25.8923C208.505 26.1338 209.201 26.3865 209.949 26.6532C210.696 26.9172 211.393 27.2653 212.038 27.6949C212.683 28.1245 213.22 28.658 213.643 29.2981C214.067 29.9383 214.277 30.7301 214.277 31.6763C214.277 32.6226 214.07 33.3891 213.658 34.1051C213.246 34.821 212.683 35.4219 211.97 35.9048C211.256 36.3906 210.426 36.7584 209.48 37.0111C208.534 37.2638 207.525 37.3902 206.453 37.3902C205.584 37.3902 204.782 37.3115 204.046 37.1599C203.31 37.0055 202.648 36.8033 202.057 36.5478C201.466 36.2951 200.954 36.02 200.519 35.7223C200.085 35.4247 199.735 35.1215 199.465 34.8154L201.571 31.0165C201.838 31.258 202.193 31.4966 202.639 31.7269C203.086 31.9571 203.557 32.1621 204.06 32.339C204.561 32.5159 205.075 32.6534 205.598 32.7517C206.121 32.85 206.607 32.9005 207.053 32.9005C207.61 32.9005 208.073 32.8079 208.44 32.6197C208.806 32.4316 208.991 32.12 208.991 31.6791C208.991 31.2383 208.778 30.9238 208.355 30.6711C207.931 30.4184 207.397 30.177 206.749 29.9439C206.101 29.7137 205.405 29.4638 204.66 29.1999C203.913 28.9359 203.216 28.5878 202.571 28.1582C201.923 27.7286 201.389 27.1951 200.966 26.5578C200.542 25.9204 200.332 25.1146 200.332 24.1459C200.332 23.1772 200.528 22.4163 200.917 21.734C201.307 21.0517 201.838 20.4845 202.506 20.0325C203.174 19.5804 203.95 19.2463 204.831 19.0245C205.712 18.8055 206.652 18.6932 207.655 18.6932C209.261 18.6932 210.674 18.9403 211.901 19.4372C213.126 19.9314 214.03 20.4986 214.61 21.1387L212.001 24.64C211.822 24.4407 211.555 24.2554 211.199 24.0785H211.202Z" fill="#731982"/>
<path d="M226.33 19.0276V22.8911H222.351V30.2222C222.351 31.1684 222.612 31.9012 223.135 32.4179C223.658 32.9345 224.4 33.1928 225.358 33.1928H228.131V37.0563H225.358C224.244 37.0563 223.218 36.9075 222.283 36.6099C221.348 36.3123 220.538 35.8714 219.859 35.2874C219.179 34.7034 218.651 33.9874 218.27 33.1395C217.892 32.2915 217.702 31.3172 217.702 30.2166V22.8855H216.164V19.022H217.702V15.8183H222.348V19.022H226.327L226.33 19.0276Z" fill="#731982"/>
<path d="M238.615 18.6971C240.019 18.6971 241.307 18.9217 242.478 19.3738C243.648 19.8258 244.646 20.4576 245.47 21.2718C246.294 22.0861 246.937 23.066 247.391 24.2116C247.849 25.3571 248.076 26.6347 248.076 28.0414C248.076 29.4481 247.849 30.7284 247.391 31.8712C246.934 33.0167 246.294 33.9967 245.47 34.8109C244.646 35.6252 243.648 36.2597 242.478 36.709C241.307 37.161 240.019 37.3856 238.615 37.3856C237.211 37.3856 235.89 37.1582 234.722 36.709C233.551 36.2569 232.554 35.6252 231.729 34.8109C230.905 33.9967 230.263 33.0167 229.808 31.8712C229.351 30.7256 229.123 29.4509 229.123 28.0414C229.123 26.6319 229.351 25.3543 229.808 24.2116C230.266 23.066 230.905 22.0861 231.729 21.2718C232.554 20.4576 233.551 19.823 234.722 19.3738C235.893 18.9217 237.189 18.6971 238.615 18.6971ZM238.615 32.7668C240.065 32.7668 241.221 32.3373 242.091 31.4781C242.961 30.6189 243.396 29.4761 243.396 28.0442C243.396 26.6122 242.961 25.4694 242.091 24.6103C241.221 23.7511 240.062 23.3215 238.615 23.3215C237.169 23.3215 235.975 23.7511 235.106 24.6103C234.236 25.4694 233.801 26.615 233.801 28.0442C233.801 29.4733 234.236 30.6189 235.106 31.4781C235.975 32.3373 237.143 32.7668 238.615 32.7668Z" fill="#731982"/>
<path d="M260.359 18.6971V23.3215H259.757C258.307 23.3215 257.142 23.7511 256.264 24.6103C255.383 25.4694 254.942 26.615 254.942 28.0442V37.0599H250.296V28.0442C250.296 26.6347 250.523 25.3571 250.981 24.2144C251.438 23.0688 252.078 22.0889 252.902 21.2746C253.726 20.4604 254.718 19.8258 255.877 19.3766C257.037 18.9245 258.33 18.6999 259.754 18.6999H260.356L260.359 18.6971Z" fill="#731982"/>
<path d="M280 28.0425C280 28.4833 279.966 28.9353 279.9 29.3958H265.995C266.239 30.4515 266.756 31.2798 267.549 31.8723C268.339 32.4675 269.337 32.7651 270.542 32.7651C271.522 32.7651 272.369 32.5517 273.083 32.1222C273.796 31.6926 274.33 31.1142 274.688 30.387L278.934 32.6332C278.175 34.1297 277.078 35.2977 275.64 36.1345C274.202 36.9712 272.503 37.3895 270.542 37.3895C269.115 37.3895 267.816 37.1621 266.648 36.7129C265.478 36.2608 264.48 35.6291 263.656 34.8148C262.832 34.0006 262.189 33.0206 261.735 31.8751C261.277 30.7295 261.05 29.4548 261.05 28.0453C261.05 26.6358 261.277 25.3582 261.735 24.2155C262.192 23.0699 262.832 22.09 263.656 21.2757C264.48 20.4615 265.478 19.8269 266.648 19.3777C267.819 18.9256 269.115 18.701 270.542 18.701C271.969 18.701 273.233 18.9256 274.404 19.3777C275.575 19.8297 276.573 20.4615 277.397 21.2757C278.221 22.09 278.863 23.0699 279.318 24.2155C279.775 25.361 280.003 26.6386 280.003 28.0453L280 28.0425ZM275.152 26.6217C274.93 25.4986 274.415 24.6085 273.614 23.9459C272.813 23.2861 271.787 22.9548 270.539 22.9548C269.291 22.9548 268.26 23.2861 267.447 23.9459C266.634 24.6057 266.114 25.4986 265.892 26.6217H275.152Z" fill="#731982"/>
</g>
<path d="M36.512 56.104C35.8187 56.104 35.173 55.987 34.575 55.753C33.9857 55.519 33.4743 55.194 33.041 54.778C32.6077 54.3533 32.2697 53.8593 32.027 53.296C31.7843 52.7327 31.663 52.1173 31.663 51.45C31.663 50.7827 31.7843 50.1673 32.027 49.604C32.2697 49.0407 32.6077 48.551 33.041 48.135C33.4743 47.7103 33.9857 47.381 34.575 47.147C35.1643 46.913 35.81 46.796 36.512 46.796C37.2053 46.796 37.8423 46.913 38.423 47.147C39.0123 47.3723 39.5237 47.6973 39.957 48.122C40.399 48.538 40.737 49.0277 40.971 49.591C41.2137 50.1543 41.335 50.774 41.335 51.45C41.335 52.126 41.2137 52.7457 40.971 53.309C40.737 53.8723 40.399 54.3663 39.957 54.791C39.5237 55.207 39.0123 55.532 38.423 55.766C37.8423 55.9913 37.2053 56.104 36.512 56.104ZM36.512 54.947C37.0147 54.947 37.4783 54.8603 37.903 54.687C38.3363 54.5137 38.709 54.271 39.021 53.959C39.3417 53.6383 39.5887 53.2657 39.762 52.841C39.944 52.4163 40.035 51.9527 40.035 51.45C40.035 50.9473 39.944 50.4837 39.762 50.059C39.5887 49.6343 39.3417 49.266 39.021 48.954C38.709 48.6333 38.3363 48.3863 37.903 48.213C37.4783 48.0397 37.0147 47.953 36.512 47.953C36.0007 47.953 35.5283 48.0397 35.095 48.213C34.6703 48.3863 34.2977 48.6333 33.977 48.954C33.6563 49.266 33.405 49.6343 33.223 50.059C33.0497 50.4837 32.963 50.9473 32.963 51.45C32.963 51.9527 33.0497 52.4163 33.223 52.841C33.405 53.2657 33.6563 53.6383 33.977 53.959C34.2977 54.271 34.6703 54.5137 35.095 54.687C35.5283 54.8603 36.0007 54.947 36.512 54.947ZM47.3365 56.104C47.3279 56.104 47.2975 56.104 47.2455 56.104C47.2022 56.104 47.1589 56.104 47.1155 56.104C47.0722 56.104 47.0462 56.104 47.0375 56.104C45.6249 56.0867 44.5285 55.7747 43.7485 55.168C42.9685 54.5527 42.5785 53.6773 42.5785 52.542C42.5785 51.4153 42.9685 50.553 43.7485 49.955C44.5372 49.3483 45.6465 49.0407 47.0765 49.032C47.0939 49.032 47.1199 49.032 47.1545 49.032C47.1979 49.032 47.2369 49.032 47.2715 49.032C47.3149 49.032 47.3409 49.032 47.3495 49.032C48.7969 49.032 49.9192 49.3353 50.7165 49.942C51.5225 50.5487 51.9255 51.4153 51.9255 52.542C51.9255 53.686 51.5225 54.5657 50.7165 55.181C49.9105 55.7963 48.7839 56.104 47.3365 56.104ZM47.3105 55.012C48.0645 55.012 48.6885 54.9167 49.1825 54.726C49.6852 54.5353 50.0622 54.258 50.3135 53.894C50.5649 53.53 50.6905 53.0793 50.6905 52.542C50.6905 52.0133 50.5649 51.5713 50.3135 51.216C50.0622 50.8607 49.6852 50.592 49.1825 50.41C48.6885 50.228 48.0645 50.137 47.3105 50.137C47.2932 50.137 47.2585 50.137 47.2065 50.137C47.1545 50.137 47.1242 50.137 47.1155 50.137C46.3789 50.137 45.7635 50.2323 45.2695 50.423C44.7842 50.605 44.4202 50.8737 44.1775 51.229C43.9349 51.5843 43.8135 52.022 43.8135 52.542C43.8135 53.0707 43.9349 53.517 44.1775 53.881C44.4289 54.245 44.7972 54.5223 45.2825 54.713C45.7765 54.9037 46.3875 55.0033 47.1155 55.012C47.1329 55.012 47.1632 55.012 47.2065 55.012C47.2585 55.012 47.2932 55.012 47.3105 55.012ZM46.6345 58.522V46.354H47.8565V58.522H46.6345ZM53.6895 56V49.11H54.9375V54.128L59.1625 49.11H60.2935V56H59.0455V50.982L54.8335 56H53.6895ZM62.7158 56V49.11H63.9638V54.908H67.7338V49.11H68.9818V56H62.7158ZM68.8908 57.599V55.935L69.2028 56H67.7338V54.908H70.0738V57.599H68.8908ZM71.6914 56V49.11H72.9394V54.128L77.1644 49.11H78.2954V56H77.0474V50.982L72.8354 56H71.6914ZM84.9428 56V54.544L84.8778 54.271V51.788C84.8778 51.2593 84.7218 50.852 84.4098 50.566C84.1065 50.2713 83.6471 50.124 83.0318 50.124C82.6245 50.124 82.2258 50.1933 81.8358 50.332C81.4458 50.462 81.1165 50.6397 80.8478 50.865L80.3278 49.929C80.6831 49.643 81.1078 49.4263 81.6018 49.279C82.1045 49.123 82.6288 49.045 83.1748 49.045C84.1195 49.045 84.8475 49.2747 85.3588 49.734C85.8701 50.1933 86.1258 50.8953 86.1258 51.84V56H84.9428ZM82.6808 56.078C82.1695 56.078 81.7188 55.9913 81.3288 55.818C80.9475 55.6447 80.6528 55.4063 80.4448 55.103C80.2368 54.791 80.1328 54.44 80.1328 54.05C80.1328 53.6773 80.2195 53.3393 80.3928 53.036C80.5748 52.7327 80.8651 52.49 81.2638 52.308C81.6711 52.126 82.2171 52.035 82.9018 52.035H85.0858V52.932H82.9538C82.3298 52.932 81.9095 53.036 81.6928 53.244C81.4761 53.452 81.3678 53.7033 81.3678 53.998C81.3678 54.336 81.5021 54.609 81.7708 54.817C82.0395 55.0163 82.4121 55.116 82.8888 55.116C83.3568 55.116 83.7641 55.012 84.1108 54.804C84.4661 54.596 84.7218 54.2927 84.8778 53.894L85.1248 54.752C84.9601 55.1593 84.6698 55.4843 84.2538 55.727C83.8378 55.961 83.3135 56.078 82.6808 56.078ZM87.2291 55.987L87.3071 54.934C87.3677 54.9427 87.4241 54.9513 87.4761 54.96C87.5281 54.9687 87.5757 54.973 87.6191 54.973C87.8964 54.973 88.1131 54.8777 88.2691 54.687C88.4337 54.4963 88.5551 54.245 88.6331 53.933C88.7111 53.6123 88.7674 53.2527 88.8021 52.854C88.8367 52.4553 88.8627 52.0567 88.8801 51.658L88.9971 49.11H94.2881V56H93.0401V49.838L93.3391 50.202H89.8031L90.0891 49.825L89.9981 51.736C89.9721 52.3427 89.9244 52.9103 89.8551 53.439C89.7857 53.9677 89.6774 54.4313 89.5301 54.83C89.3914 55.2287 89.1964 55.5407 88.9451 55.766C88.7024 55.9913 88.3861 56.104 87.9961 56.104C87.8834 56.104 87.7621 56.091 87.6321 56.065C87.5107 56.0477 87.3764 56.0217 87.2291 55.987ZM99.8862 51.45C100.762 51.4587 101.429 51.658 101.888 52.048C102.348 52.438 102.577 52.9883 102.577 53.699C102.577 54.4443 102.326 55.0207 101.823 55.428C101.321 55.8267 100.61 56.0217 99.6912 56.013L96.7012 56V49.11H97.9492V51.437L99.8862 51.45ZM99.5872 55.064C100.151 55.0727 100.575 54.96 100.861 54.726C101.156 54.492 101.303 54.1453 101.303 53.686C101.303 53.2353 101.16 52.906 100.874 52.698C100.588 52.49 100.159 52.3817 99.5872 52.373L97.9492 52.347V55.051L99.5872 55.064ZM104.179 56V49.11H105.427V52.035H109.353V49.11H110.601V56H109.353V53.114H105.427V56H104.179ZM119.839 56V49.11H121.087V56H119.839ZM116.134 51.45C117.01 51.4587 117.673 51.658 118.123 52.048C118.583 52.438 118.812 52.9883 118.812 53.699C118.812 54.4443 118.561 55.0207 118.058 55.428C117.564 55.8267 116.854 56.0217 115.926 56.013L113.027 56V49.11H114.275V51.437L116.134 51.45ZM115.835 55.064C116.39 55.0727 116.815 54.96 117.109 54.726C117.404 54.492 117.551 54.1453 117.551 53.686C117.551 53.2353 117.404 52.906 117.109 52.698C116.823 52.49 116.399 52.3817 115.835 52.373L114.275 52.347V55.051L115.835 55.064ZM123.514 56V49.11H124.762V54.128L128.987 49.11H130.118V56H128.87V50.982L124.658 56H123.514ZM126.738 48.213C126.105 48.213 125.607 48.0613 125.243 47.758C124.887 47.446 124.705 46.9997 124.697 46.419H125.542C125.55 46.7483 125.659 47.0083 125.867 47.199C126.083 47.3897 126.369 47.485 126.725 47.485C127.08 47.485 127.366 47.3897 127.583 47.199C127.799 47.0083 127.912 46.7483 127.921 46.419H128.792C128.783 46.9997 128.597 47.446 128.233 47.758C127.869 48.0613 127.37 48.213 126.738 48.213ZM136.031 56V49.11H142.414V56H141.166V49.89L141.465 50.202H136.98L137.279 49.89V56H136.031ZM149.054 56V54.544L148.989 54.271V51.788C148.989 51.2593 148.833 50.852 148.521 50.566C148.218 50.2713 147.758 50.124 147.143 50.124C146.736 50.124 146.337 50.1933 145.947 50.332C145.557 50.462 145.228 50.6397 144.959 50.865L144.439 49.929C144.794 49.643 145.219 49.4263 145.713 49.279C146.216 49.123 146.74 49.045 147.286 49.045C148.231 49.045 148.959 49.2747 149.47 49.734C149.981 50.1933 150.237 50.8953 150.237 51.84V56H149.054ZM146.792 56.078C146.281 56.078 145.83 55.9913 145.44 55.818C145.059 55.6447 144.764 55.4063 144.556 55.103C144.348 54.791 144.244 54.44 144.244 54.05C144.244 53.6773 144.331 53.3393 144.504 53.036C144.686 52.7327 144.976 52.49 145.375 52.308C145.782 52.126 146.328 52.035 147.013 52.035H149.197V52.932H147.065C146.441 52.932 146.021 53.036 145.804 53.244C145.587 53.452 145.479 53.7033 145.479 53.998C145.479 54.336 145.613 54.609 145.882 54.817C146.151 55.0163 146.523 55.116 147 55.116C147.468 55.116 147.875 55.012 148.222 54.804C148.577 54.596 148.833 54.2927 148.989 53.894L149.236 54.752C149.071 55.1593 148.781 55.4843 148.365 55.727C147.949 55.961 147.425 56.078 146.792 56.078ZM156.137 56.078C155.565 56.078 155.041 55.948 154.564 55.688C154.096 55.4193 153.719 55.025 153.433 54.505C153.156 53.985 153.017 53.335 153.017 52.555C153.017 51.775 153.152 51.125 153.42 50.605C153.698 50.085 154.07 49.695 154.538 49.435C155.015 49.175 155.548 49.045 156.137 49.045C156.813 49.045 157.411 49.1923 157.931 49.487C158.451 49.7817 158.863 50.1933 159.166 50.722C159.47 51.242 159.621 51.853 159.621 52.555C159.621 53.257 159.47 53.8723 159.166 54.401C158.863 54.9297 158.451 55.3413 157.931 55.636C157.411 55.9307 156.813 56.078 156.137 56.078ZM152.484 58.522V49.11H153.68V50.969L153.602 52.568L153.732 54.167V58.522H152.484ZM156.033 54.986C156.475 54.986 156.87 54.8863 157.216 54.687C157.572 54.4877 157.849 54.206 158.048 53.842C158.256 53.4693 158.36 53.0403 158.36 52.555C158.36 52.061 158.256 51.6363 158.048 51.281C157.849 50.917 157.572 50.6353 157.216 50.436C156.87 50.2367 156.475 50.137 156.033 50.137C155.6 50.137 155.206 50.2367 154.85 50.436C154.504 50.6353 154.226 50.917 154.018 51.281C153.819 51.6363 153.719 52.061 153.719 52.555C153.719 53.0403 153.819 53.4693 154.018 53.842C154.226 54.206 154.504 54.4877 154.85 54.687C155.206 54.8863 155.6 54.986 156.033 54.986ZM162.546 56V49.877L162.858 50.202H160.024V49.11H166.316V50.202H163.495L163.794 49.877V56H162.546ZM167.592 56V49.11H168.84V52.035H172.766V49.11H174.014V56H172.766V53.114H168.84V56H167.592ZM179.508 56.078C178.772 56.078 178.122 55.9263 177.558 55.623C177.004 55.3197 176.57 54.9037 176.258 54.375C175.955 53.8463 175.803 53.2397 175.803 52.555C175.803 51.8703 175.951 51.2637 176.245 50.735C176.549 50.2063 176.96 49.7947 177.48 49.5C178.009 49.1967 178.603 49.045 179.261 49.045C179.929 49.045 180.518 49.1923 181.029 49.487C181.541 49.7817 181.939 50.1977 182.225 50.735C182.52 51.2637 182.667 51.8833 182.667 52.594C182.667 52.646 182.663 52.7067 182.654 52.776C182.654 52.8453 182.65 52.9103 182.641 52.971H176.778V52.074H181.991L181.484 52.386C181.493 51.944 181.402 51.5497 181.211 51.203C181.021 50.8563 180.756 50.5877 180.418 50.397C180.089 50.1977 179.703 50.098 179.261 50.098C178.828 50.098 178.442 50.1977 178.104 50.397C177.766 50.5877 177.502 50.8607 177.311 51.216C177.121 51.5627 177.025 51.9613 177.025 52.412V52.62C177.025 53.0793 177.129 53.491 177.337 53.855C177.554 54.2103 177.853 54.4877 178.234 54.687C178.616 54.8863 179.053 54.986 179.547 54.986C179.955 54.986 180.323 54.9167 180.652 54.778C180.99 54.6393 181.285 54.4313 181.536 54.154L182.225 54.96C181.913 55.324 181.523 55.6013 181.055 55.792C180.596 55.9827 180.08 56.078 179.508 56.078ZM188.257 56.078C187.685 56.078 187.16 55.948 186.684 55.688C186.216 55.4193 185.839 55.025 185.553 54.505C185.275 53.985 185.137 53.335 185.137 52.555C185.137 51.775 185.271 51.125 185.54 50.605C185.817 50.085 186.19 49.695 186.658 49.435C187.134 49.175 187.667 49.045 188.257 49.045C188.933 49.045 189.531 49.1923 190.051 49.487C190.571 49.7817 190.982 50.1933 191.286 50.722C191.589 51.242 191.741 51.853 191.741 52.555C191.741 53.257 191.589 53.8723 191.286 54.401C190.982 54.9297 190.571 55.3413 190.051 55.636C189.531 55.9307 188.933 56.078 188.257 56.078ZM184.604 58.522V49.11H185.8V50.969L185.722 52.568L185.852 54.167V58.522H184.604ZM188.153 54.986C188.595 54.986 188.989 54.8863 189.336 54.687C189.691 54.4877 189.968 54.206 190.168 53.842C190.376 53.4693 190.48 53.0403 190.48 52.555C190.48 52.061 190.376 51.6363 190.168 51.281C189.968 50.917 189.691 50.6353 189.336 50.436C188.989 50.2367 188.595 50.137 188.153 50.137C187.719 50.137 187.325 50.2367 186.97 50.436C186.623 50.6353 186.346 50.917 186.138 51.281C185.938 51.6363 185.839 52.061 185.839 52.555C185.839 53.0403 185.938 53.4693 186.138 53.842C186.346 54.206 186.623 54.4877 186.97 54.687C187.325 54.8863 187.719 54.986 188.153 54.986ZM197.201 56V46.9H198.267L202.349 53.777H201.777L205.807 46.9H206.873L206.886 56H205.638L205.625 48.863H205.924L202.336 54.895H201.738L198.124 48.863H198.449V56H197.201ZM212.503 56.078C211.766 56.078 211.116 55.9263 210.553 55.623C209.998 55.3197 209.565 54.9037 209.253 54.375C208.95 53.8463 208.798 53.2397 208.798 52.555C208.798 51.8703 208.945 51.2637 209.24 50.735C209.543 50.2063 209.955 49.7947 210.475 49.5C211.004 49.1967 211.597 49.045 212.256 49.045C212.923 49.045 213.513 49.1923 214.024 49.487C214.535 49.7817 214.934 50.1977 215.22 50.735C215.515 51.2637 215.662 51.8833 215.662 52.594C215.662 52.646 215.658 52.7067 215.649 52.776C215.649 52.8453 215.645 52.9103 215.636 52.971H209.773V52.074H214.986L214.479 52.386C214.488 51.944 214.397 51.5497 214.206 51.203C214.015 50.8563 213.751 50.5877 213.413 50.397C213.084 50.1977 212.698 50.098 212.256 50.098C211.823 50.098 211.437 50.1977 211.099 50.397C210.761 50.5877 210.497 50.8607 210.306 51.216C210.115 51.5627 210.02 51.9613 210.02 52.412V52.62C210.02 53.0793 210.124 53.491 210.332 53.855C210.549 54.2103 210.848 54.4877 211.229 54.687C211.61 54.8863 212.048 54.986 212.542 54.986C212.949 54.986 213.318 54.9167 213.647 54.778C213.985 54.6393 214.28 54.4313 214.531 54.154L215.22 54.96C214.908 55.324 214.518 55.6013 214.05 55.792C213.591 55.9827 213.075 56.078 212.503 56.078ZM220.411 58.6C219.778 58.6 219.163 58.509 218.565 58.327C217.976 58.1537 217.495 57.9023 217.122 57.573L217.72 56.611C218.041 56.8883 218.435 57.105 218.903 57.261C219.371 57.4257 219.861 57.508 220.372 57.508C221.187 57.508 221.785 57.3173 222.166 56.936C222.547 56.5547 222.738 55.974 222.738 55.194V53.738L222.868 52.373L222.803 50.995V49.11H223.986V55.064C223.986 56.2773 223.683 57.17 223.076 57.742C222.469 58.314 221.581 58.6 220.411 58.6ZM220.255 55.714C219.588 55.714 218.99 55.5753 218.461 55.298C217.941 55.012 217.525 54.6177 217.213 54.115C216.91 53.6123 216.758 53.0317 216.758 52.373C216.758 51.7057 216.91 51.125 217.213 50.631C217.525 50.1283 217.941 49.7383 218.461 49.461C218.99 49.1837 219.588 49.045 220.255 49.045C220.844 49.045 221.382 49.1663 221.867 49.409C222.352 49.643 222.738 50.007 223.024 50.501C223.319 50.995 223.466 51.619 223.466 52.373C223.466 53.1183 223.319 53.738 223.024 54.232C222.738 54.726 222.352 55.0987 221.867 55.35C221.382 55.5927 220.844 55.714 220.255 55.714ZM220.398 54.622C220.857 54.622 221.265 54.5267 221.62 54.336C221.975 54.1453 222.253 53.881 222.452 53.543C222.66 53.205 222.764 52.815 222.764 52.373C222.764 51.931 222.66 51.541 222.452 51.203C222.253 50.865 221.975 50.605 221.62 50.423C221.265 50.2323 220.857 50.137 220.398 50.137C219.939 50.137 219.527 50.2323 219.163 50.423C218.808 50.605 218.526 50.865 218.318 51.203C218.119 51.541 218.019 51.931 218.019 52.373C218.019 52.815 218.119 53.205 218.318 53.543C218.526 53.881 218.808 54.1453 219.163 54.336C219.527 54.5267 219.939 54.622 220.398 54.622ZM230.648 56V54.544L230.583 54.271V51.788C230.583 51.2593 230.427 50.852 230.115 50.566C229.811 50.2713 229.352 50.124 228.737 50.124C228.329 50.124 227.931 50.1933 227.541 50.332C227.151 50.462 226.821 50.6397 226.553 50.865L226.033 49.929C226.388 49.643 226.813 49.4263 227.307 49.279C227.809 49.123 228.334 49.045 228.88 49.045C229.824 49.045 230.552 49.2747 231.064 49.734C231.575 50.1933 231.831 50.8953 231.831 51.84V56H230.648ZM228.386 56.078C227.874 56.078 227.424 55.9913 227.034 55.818C226.652 55.6447 226.358 55.4063 226.15 55.103C225.942 54.791 225.838 54.44 225.838 54.05C225.838 53.6773 225.924 53.3393 226.098 53.036C226.28 52.7327 226.57 52.49 226.969 52.308C227.376 52.126 227.922 52.035 228.607 52.035H230.791V52.932H228.659C228.035 52.932 227.614 53.036 227.398 53.244C227.181 53.452 227.073 53.7033 227.073 53.998C227.073 54.336 227.207 54.609 227.476 54.817C227.744 55.0163 228.117 55.116 228.594 55.116C229.062 55.116 229.469 55.012 229.816 54.804C230.171 54.596 230.427 54.2927 230.583 53.894L230.83 54.752C230.665 55.1593 230.375 55.4843 229.959 55.727C229.543 55.961 229.018 56.078 228.386 56.078ZM234.322 56V48.499C234.322 47.823 234.517 47.2857 234.907 46.887C235.306 46.4797 235.869 46.276 236.597 46.276C236.866 46.276 237.121 46.3107 237.364 46.38C237.615 46.4407 237.828 46.5403 238.001 46.679L237.624 47.628C237.494 47.524 237.347 47.446 237.182 47.394C237.017 47.3333 236.844 47.303 236.662 47.303C236.298 47.303 236.021 47.407 235.83 47.615C235.639 47.8143 235.544 48.1133 235.544 48.512V49.435L235.57 50.007V56H234.322ZM233.152 50.137V49.11H237.546V50.137H233.152ZM241.572 56.078C240.879 56.078 240.264 55.9263 239.726 55.623C239.189 55.3197 238.764 54.9037 238.452 54.375C238.14 53.8377 237.984 53.231 237.984 52.555C237.984 51.8703 238.14 51.2637 238.452 50.735C238.764 50.2063 239.189 49.7947 239.726 49.5C240.264 49.1967 240.879 49.045 241.572 49.045C242.257 49.045 242.868 49.1967 243.405 49.5C243.951 49.7947 244.376 50.2063 244.679 50.735C244.991 51.255 245.147 51.8617 245.147 52.555C245.147 53.2397 244.991 53.8463 244.679 54.375C244.376 54.9037 243.951 55.3197 243.405 55.623C242.868 55.9263 242.257 56.078 241.572 56.078ZM241.572 54.986C242.014 54.986 242.409 54.8863 242.755 54.687C243.111 54.4877 243.388 54.206 243.587 53.842C243.787 53.4693 243.886 53.0403 243.886 52.555C243.886 52.061 243.787 51.6363 243.587 51.281C243.388 50.917 243.111 50.6353 242.755 50.436C242.409 50.2367 242.014 50.137 241.572 50.137C241.13 50.137 240.736 50.2367 240.389 50.436C240.043 50.6353 239.765 50.917 239.557 51.281C239.349 51.6363 239.245 52.061 239.245 52.555C239.245 53.0403 239.349 53.4693 239.557 53.842C239.765 54.206 240.043 54.4877 240.389 54.687C240.736 54.8863 241.13 54.986 241.572 54.986ZM250.552 49.045C251.116 49.045 251.61 49.1533 252.034 49.37C252.468 49.5867 252.806 49.916 253.048 50.358C253.291 50.8 253.412 51.359 253.412 52.035V56H252.164V52.178C252.164 51.5107 252 51.008 251.67 50.67C251.35 50.332 250.895 50.163 250.305 50.163C249.863 50.163 249.478 50.2497 249.148 50.423C248.819 50.5963 248.563 50.852 248.381 51.19C248.208 51.528 248.121 51.9483 248.121 52.451V56H246.873V49.11H248.069V50.969L247.874 50.475C248.1 50.0243 248.446 49.6733 248.914 49.422C249.382 49.1707 249.928 49.045 250.552 49.045Z" fill="#22212A"/>
<defs>
<clipPath id="clip0_1_2874">
<rect width="280" height="39" fill="white"/>
</clipPath>
</defs>
</svg>
